Coordinates
version=1
nRows=18
nColumns=63
inDegrees=yes

Units are S.I. units (second, meters, Newtons, ...)
If the header above contains a line with 'inDegrees', this indicates whether rotational values are in degrees (yes) or radians (no).

endheader
time	pelvis_tilt	pelvis_list	pelvis_rotation	pelvis_tx	pelvis_ty	pelvis_tz	hip_flexion_r	hip_adduction_r	hip_rotation_r	knee_angle_r	knee_angle_r_beta	ankle_angle_r	subtalar_angle_r	mtp_angle_r	hip_flexion_l	hip_adduction_l	hip_rotation_l	knee_angle_l	knee_angle_l_beta	ankle_angle_l	subtalar_angle_l	mtp_angle_l	L5_S1_Flex_Ext	L5_S1_Lat_Bending	L5_S1_axial_rotation	L4_L5_Flex_Ext	L4_L5_Lat_Bending	L4_L5_axial_rotation	L3_L4_Flex_Ext	L3_L4_Lat_Bending	L3_L4_axial_rotation	L2_L3_Flex_Ext	L2_L3_Lat_Bending	L2_L3_axial_rotation	L1_L2_Flex_Ext	L1_L2_Lat_Bending	L1_L2_axial_rotation	L1_T12_Flex_Ext	L1_T12_Lat_Bending	L1_T12_axial_rotation	Abs_r3	Abs_r2	Abs_r1	Abs_t1	Abs_t2	neck_flexion	neck_bending	neck_rotation	arm_flex_r	arm_add_r	arm_rot_r	elbow_flex_r	pro_sup_r	wrist_flex_r	wrist_dev_r	arm_flex_l	arm_add_l	arm_rot_l	elbow_flex_l	pro_sup_l	wrist_flex_l	wrist_dev_l
0.000000	2.855158	-5.554031	97.754617	0.167859	0.671495	0.541897	3.719656	4.134656	-18.735205	9.856217	0.172023	30.103406	-3.073502	0.000000	5.199995	-4.038249	-3.919406	11.533330	0.201295	35.844753	12.714111	0.000000	-0.116598	0.661398	-2.195414	-0.216535	0.879659	-2.332627	-0.191559	1.608123	-2.332627	-0.133260	1.608123	-1.920987	-0.108273	1.348723	-1.783774	-0.066624	1.024505	-1.646560	-0.832850	7.481866	-12.210233	0.000000	0.000000	17.953837	-4.125716	4.442669	15.932430	-14.998981	65.612849	50.494028	24.671498	13.967842	-0.123840	9.876063	-5.780178	44.800694	49.276465	47.861326	1.547479	7.840126
0.016949	3.010948	-5.520427	98.457228	0.166637	0.671246	0.542523	3.514462	4.401866	-17.587264	9.113536	0.159061	29.927767	-4.574139	0.000000	5.429541	-4.126586	-3.463294	11.713080	0.204432	36.020125	12.829238	0.000000	-0.108066	0.692122	-2.347224	-0.200689	0.920522	-2.493925	-0.177541	1.682826	-2.493925	-0.123508	1.682826	-2.053821	-0.100350	1.411375	-1.907119	-0.061749	1.072097	-1.760418	-0.771903	7.829423	-13.054554	0.000000	0.000000	18.004502	-4.033857	5.549681	16.164142	-15.149956	65.731352	50.611461	30.728529	13.238080	-0.470093	9.803389	-5.606056	44.294045	49.392419	48.673202	1.223558	7.578744
0.033898	3.098975	-5.500149	98.957730	0.165742	0.671026	0.542983	3.369751	4.550520	-16.813122	8.598554	0.150073	29.809985	-5.563789	0.000000	5.584646	-4.164237	-3.168508	11.826402	0.206410	36.092248	12.954683	0.000000	-0.102419	0.714090	-2.455700	-0.190203	0.949740	-2.609182	-0.168264	1.736238	-2.609182	-0.117055	1.736238	-2.148738	-0.095106	1.456172	-1.995257	-0.058522	1.106125	-1.841775	-0.731570	8.077928	-13.657869	0.000000	0.000000	18.073737	-3.953464	6.393502	16.329882	-15.252935	65.800121	50.694105	34.957706	12.750283	-0.597135	9.759754	-5.476312	43.862155	49.523707	49.299384	0.955476	7.492260
0.050847	3.126957	-5.491054	99.273616	0.165150	0.670835	0.543283	3.278317	4.594975	-16.366675	8.287235	0.144640	29.744001	-6.100524	0.000000	5.672780	-4.158022	-3.020041	11.882895	0.207396	36.075801	13.085069	0.000000	-0.099328	0.728146	-2.525258	-0.184463	0.968434	-2.683087	-0.163187	1.770413	-2.683087	-0.113522	1.770413	-2.209601	-0.092236	1.484835	-2.051772	-0.056756	1.127898	-1.893944	-0.709493	8.236929	-14.044730	0.000000	0.000000	18.155079	-3.883607	6.996991	16.435017	-15.312189	65.816824	50.748880	37.607184	12.468290	-0.532916	9.737647	-5.386815	43.492805	49.670281	49.764248	0.739311	7.558869
0.067797	3.102612	-5.490998	99.422375	0.164838	0.670676	0.543429	3.232957	4.549583	-16.201820	8.155544	0.142341	29.723756	-6.242414	0.000000	5.701411	-4.114766	-3.002885	11.892161	0.207557	35.985464	13.215017	0.000000	-0.098463	0.735133	-2.560313	-0.182856	0.977727	-2.720333	-0.161765	1.787403	-2.720333	-0.112534	1.787403	-2.240274	-0.091433	1.499084	-2.080254	-0.056262	1.138721	-1.920235	-0.703313	8.315975	-14.239693	0.000000	0.000000	18.242067	-3.823358	7.383004	16.484917	-15.331989	65.779128	50.782706	38.925116	12.355937	-0.305384	9.729555	-5.333431	43.173776	49.832095	50.092165	0.571142	7.756767
0.084746	3.033659	-5.497836	99.421497	0.164784	0.670547	0.543428	3.226468	4.428702	-16.272451	8.179447	0.142758	29.743192	-6.047530	0.000000	5.678008	-4.041291	-3.102035	11.863801	0.207062	35.835916	13.339148	0.000000	-0.099493	0.735897	-2.565279	-0.184769	0.978743	-2.725609	-0.163458	1.789260	-2.725609	-0.113711	1.789260	-2.244619	-0.092390	1.500641	-2.084289	-0.056850	1.139904	-1.923959	-0.710671	8.324612	-14.267311	0.000000	0.000000	18.328238	-3.771790	7.574397	16.484949	-15.316606	65.684702	50.802506	39.159656	12.377062	0.057509	9.727968	-5.312030	42.892849	50.009104	50.307509	0.447047	8.064148
0.101695	2.927816	-5.509425	99.288472	0.164965	0.670451	0.543284	3.251644	4.246684	-16.532464	8.334909	0.145472	29.796251	-5.573944	0.000000	5.610040	-3.944418	-3.302483	11.807415	0.206078	35.641837	13.452084	0.000000	-0.102089	0.731280	-2.544571	-0.189589	0.972603	-2.703607	-0.167721	1.778035	-2.703607	-0.116677	1.778035	-2.226500	-0.094799	1.491227	-2.067464	-0.058333	1.132753	-1.908428	-0.729208	8.272390	-14.152140	0.000000	0.000000	18.407129	-3.727973	7.594027	16.440483	-15.270311	65.531211	50.815200	38.558959	12.495501	0.527816	9.725374	-5.318480	42.637805	50.201261	50.434655	0.363104	8.459208
0.118644	2.792800	-5.523619	99.040790	0.165359	0.670388	0.543004	3.301282	4.017887	-16.935755	8.597895	0.150062	29.876875	-4.879726	0.000000	5.504975	-3.830971	-3.589223	11.732605	0.204773	35.417906	13.548447	0.000000	-0.105919	0.722128	-2.502604	-0.196701	0.960430	-2.659017	-0.174014	1.755782	-2.659017	-0.121054	1.755782	-2.189779	-0.098356	1.472564	-2.033366	-0.060522	1.118576	-1.876953	-0.756566	8.168857	-13.918734	0.000000	0.000000	18.472278	-3.690980	7.464750	16.356886	-15.197374	65.316325	50.827710	37.371178	12.675092	1.077585	9.714262	-5.348647	42.396425	50.408520	50.497974	0.315391	8.920140
0.135593	2.636329	-5.538276	98.695941	0.165942	0.670358	0.542595	3.368177	3.756663	-17.436220	8.944371	0.156109	29.979005	-4.022946	0.000000	5.370282	-3.707772	-3.947247	11.648972	0.203313	35.178802	13.622858	0.000000	-0.110653	0.709284	-2.443794	-0.205494	0.943347	-2.596531	-0.181792	1.724553	-2.596531	-0.126466	1.724553	-2.138319	-0.102753	1.446372	-1.985582	-0.063227	1.098681	-1.832845	-0.790385	8.023560	-13.591647	0.000000	0.000000	18.517221	-3.659881	7.209423	16.239527	-15.102067	65.037709	50.846956	35.844467	12.879672	1.678868	9.687121	-5.398401	42.156489	50.630835	50.521842	0.299988	9.425141
0.152542	2.466123	-5.551251	98.271415	0.166692	0.670363	0.542060	3.445127	3.477369	-17.987755	9.350301	0.163194	30.096583	-3.061677	0.000000	5.213430	-3.581644	-4.361550	11.566117	0.201867	34.939205	13.669940	0.000000	-0.115962	0.693592	-2.372554	-0.215354	0.922477	-2.520839	-0.190514	1.686399	-2.520839	-0.132533	1.686399	-2.075985	-0.107683	1.414372	-1.927700	-0.066261	1.074374	-1.779415	-0.828307	7.846049	-13.195433	0.000000	0.000000	18.535498	-3.633750	6.850902	16.093774	-14.988661	64.693032	50.879859	34.226980	13.073079	2.303714	9.636440	-5.463610	41.905778	50.868159	50.530630	0.312972	9.952405
0.169492	2.289898	-5.560400	97.784702	0.167586	0.670403	0.541408	3.524926	3.194360	-18.544255	9.791651	0.170897	30.223551	-2.053989	0.000000	5.041888	-3.459408	-4.817124	11.493640	0.200602	34.713794	13.684312	0.000000	-0.121516	0.675896	-2.293300	-0.225667	0.898942	-2.436632	-0.199638	1.643373	-2.436632	-0.138880	1.643373	-2.006638	-0.112839	1.378287	-1.863306	-0.069434	1.046963	-1.719975	-0.867973	7.645870	-12.754648	0.000000	0.000000	18.520645	-3.611657	6.412044	15.924996	-14.861426	64.279961	50.933341	32.766871	13.219148	2.924174	9.554707	-5.540141	41.632075	51.120447	50.548712	0.350421	10.480127
0.186441	2.126483	-5.571659	97.230774	0.168669	0.670469	0.540576	3.599219	2.956270	-18.848951	10.209060	0.178182	30.290248	-1.234685	0.000000	4.877883	-3.361679	-5.295136	11.469568	0.200182	34.521574	13.602824	0.000000	-0.125584	0.657820	-2.213504	-0.233223	0.874900	-2.351848	-0.206323	1.599423	-2.351848	-0.143530	1.599423	-1.936816	-0.116618	1.341426	-1.798472	-0.071759	1.018963	-1.660128	-0.897037	7.441388	-12.310843	0.000000	0.000000	18.535846	-3.645747	5.889717	15.692068	-14.707849	63.686775	51.011221	32.835275	13.151978	3.323578	9.361619	-5.649834	41.319806	51.374761	50.424555	0.503300	10.910703
0.203390	1.986838	-5.554956	96.679186	0.169820	0.670591	0.539623	3.632778	2.764208	-19.074391	10.580312	0.184661	30.385253	-0.490216	0.000000	4.711664	-3.299532	-5.789401	11.488941	0.200520	34.462124	13.491493	0.000000	-0.128455	0.641027	-2.144819	-0.238554	0.852566	-2.278870	-0.211039	1.558593	-2.278870	-0.146811	1.558593	-1.876717	-0.119283	1.307182	-1.742665	-0.073399	0.992951	-1.608614	-0.917543	7.251426	-11.928839	0.000000	0.000000	18.427438	-3.672080	5.386933	15.564789	-14.576979	63.327744	51.079572	34.158948	12.713414	3.455185	9.134515	-5.760485	40.972194	51.616159	50.311490	0.647020	11.320820
0.220339	1.870422	-5.516569	96.150143	0.171016	0.670759	0.538561	3.633088	2.617329	-19.218496	10.902164	0.190279	30.503815	0.159412	0.000000	4.558256	-3.270442	-6.276286	11.562958	0.201812	34.515748	13.345748	0.000000	-0.129463	0.625032	-2.089504	-0.240426	0.831293	-2.220098	-0.212695	1.519704	-2.220098	-0.147963	1.519704	-1.828316	-0.120219	1.274566	-1.697722	-0.073975	0.968175	-1.567128	-0.924741	7.070491	-11.621197	0.000000	0.000000	18.173291	-3.668873	4.901491	15.545788	-14.487251	63.165489	51.147990	36.695120	12.032651	3.346597	8.874542	-5.861380	40.572233	51.846484	50.317928	0.785041	11.696594
0.237288	1.782116	-5.462913	95.673311	0.172244	0.670952	0.537413	3.600845	2.535868	-19.119103	11.145299	0.194522	30.594102	0.465978	0.000000	4.429418	-3.279265	-6.736789	11.691904	0.204062	34.652469	13.196629	0.000000	-0.129404	0.609969	-2.051262	-0.240316	0.811258	-2.179466	-0.212598	1.483078	-2.179466	-0.147896	1.483078	-1.794854	-0.120165	1.243848	-1.666651	-0.073941	0.944842	-1.538447	-0.924320	6.900089	-11.408505	0.000000	0.000000	17.818124	-3.592357	4.452061	15.560112	-14.419264	62.936144	51.237503	40.385719	11.296654	3.129036	8.559216	-5.935067	40.027369	52.095389	50.701449	0.871102	12.009803
0.254237	1.718435	-5.391691	95.239300	0.173483	0.671180	0.536232	3.539233	2.503061	-18.918014	11.320513	0.197580	30.703048	0.642822	0.000000	4.317780	-3.316330	-7.132376	11.869570	0.207163	34.821687	13.000266	0.000000	-0.130838	0.595693	-2.023178	-0.242979	0.792272	-2.149627	-0.214953	1.448369	-2.149627	-0.149534	1.448369	-1.770281	-0.121496	1.214738	-1.643832	-0.074761	0.922729	-1.517384	-0.934561	6.738602	-11.252312	0.000000	0.000000	17.396364	-3.473228	4.009583	15.548010	-14.353319	62.440528	51.381195	44.653566	10.619813	3.028762	8.233463	-5.973401	39.401406	52.339152	51.444854	0.938546	12.153887
0.271186	1.680484	-5.321345	94.855891	0.174680	0.671427	0.535069	3.468337	2.516534	-18.583263	11.422981	0.199369	30.806600	0.640987	0.000000	4.243323	-3.373428	-7.438577	12.094756	0.211093	34.981835	12.740051	0.000000	-0.132790	0.582888	-2.007478	-0.246604	0.775241	-2.132945	-0.218160	1.417234	-2.132945	-0.151765	1.417234	-1.756543	-0.123308	1.188626	-1.631076	-0.075876	0.902894	-1.505608	-0.948503	6.593748	-11.164989	0.000000	0.000000	16.948188	-3.306382	3.605162	15.482191	-14.276405	61.600324	51.607355	49.027369	9.977340	3.185128	7.889160	-5.966090	38.672618	52.585429	52.521408	0.986770	12.065469
0.288136	1.667480	-5.245955	94.530001	0.175809	0.671711	0.533957	3.384229	2.573861	-18.132216	11.463602	0.200078	30.890874	0.470313	0.000000	4.197378	-3.448766	-7.641866	12.362130	0.215760	35.111378	12.429967	0.000000	-0.137783	0.572372	-2.005534	-0.255877	0.761255	-2.130880	-0.226364	1.391665	-2.130880	-0.157472	1.391665	-1.754842	-0.127946	1.167181	-1.629497	-0.078729	0.886604	-1.504151	-0.984172	6.474785	-11.154180	0.000000	0.000000	16.522191	-3.130607	3.271793	15.325723	-14.164423	60.331964	51.955941	53.285935	9.352298	3.753270	7.508997	-5.917800	37.819032	52.866021	53.807812	1.023385	11.760433
